Patient4_TMGait_0pt7_01_right_39_EMG.mot
version=1
nRows=30
nColumns=33
inDegrees=no
endheader
time	1LAddLong	2LGlutMax	3LGlutMed	4LIliopsoas	5LSemiMemb	6LBicFemLong	7LRecFem	8LVastMed	9LVastLat	10LGasMed	11LTibAnt	12lTibPost	13LPeroneusLong	14LSol	15LExtDigLong	16LFlexDigLong	17RAddLong	18RGlutMax	19RGlutMed	20RIliopsoas	21RSemiMemb	22RBicFemLong	23RRecFem	24RVastMed	25RVastLat	26RGasMed	27RTibAnt	28RTibPost	29RPeroneusLong	30RSol	31RExtDigLong	32RFlexDigLong
45.795	0.000458	-0.016174	0.034943	0.015411	-0.002747	0.2182	0.015259	-0.016174	0.02655	-0.046692	0.10834	0.011292	1.1667	0.036469	0.15289	0.000305	-0.11353	-0.16419	0.13184	-0.010529	0.002289	0.37643	0.018463	0.081787	0.011902	0.033569	-0.57724	-0.002289	0.089264	-0.014496	0.002441	0.005951
45.796	-0.007782	-0.036774	-0.010071	0.019531	0.001831	0.15732	0.078125	-0.010529	0.059357	-0.039978	0.15503	-0.004578	1.2041	0.078735	0.15656	0.010681	-0.15991	-0.18738	0.19989	-0.06958	0.16052	0.24918	-0.057678	0.077057	0.021973	0.028076	-0.28015	-0.004883	0.051575	0.029602	0.001221	-0.001831
45.797	0.004578	-0.015869	-0.037537	0.031433	0.007019	-0.20935	0.097198	-0.008392	0.023651	-0.019226	0.12634	-0.016937	-0.16403	0.15991	0.16449	0.014496	-0.10162	-0.24933	-0.041504	-0.10147	0.036011	-0.035095	-0.083618	0.036774	0.006866	0.018463	-0.29465	-0.012512	0.050812	-0.000305	-0.000305	0.000458
45.798	-0.008545	-0.005493	-0.026703	0.019379	0.026398	-0.28397	0.055847	-0.017395	-0.013885	-0.089417	-0.11948	0.011597	-0.19806	0.215	0.064392	0.003052	-0.085449	-0.19028	0.076904	-0.060883	0.00824	0.046997	-0.076752	0.01358	0.01297	0.007477	-0.25436	-0.010071	0.13733	-0.097198	0	-0.009003
45.799	0.002747	-0.027771	-0.045166	-0.028534	0.017242	-0.2214	0.041504	0.001678	-0.033875	-0.086365	-0.15686	0.006409	-0.47089	0.1651	-0.24567	-0.003815	-0.079956	-0.19211	0.11093	-0.012207	0.013885	0.44434	-0.094757	-0.032349	0.004578	-0.002441	-0.17654	-0.014496	0.18539	-0.067596	0.002136	-0.017853
45.8	-0.007019	-0.023193	0.10193	-0.029144	0.01236	-0.1503	-0.026245	0.009766	-0.045319	-0.061188	-0.15945	-0.006409	-0.79422	0.04303	-0.19134	-0.011597	-0.054016	-0.15167	-0.001984	0.033722	0.022583	0.4982	-0.20645	-0.039368	0.018616	0.015411	-0.3305	-0.013428	0.33707	-0.040741	-0.001831	-0.015564
45.801	0.003204	0.019379	0.066833	-0.010986	-0.008392	0.061951	0.028992	0.003967	-0.043182	-0.06073	-0.16525	-0.023193	-0.43396	0.077209	-0.1268	-0.013123	-0.030365	-0.13306	-0.011139	-0.026398	0.004425	0.2536	-0.16876	-0.049591	0.032501	-0.011139	-0.37048	-0.012817	0.20416	-0.084991	-0.00351	-0.00885
45.802	0.000458	0.054321	-0.004272	-0.00824	0.003357	0.16342	0.055389	0.004578	-0.056305	-0.015869	-0.13062	0.002594	-0.5307	-0.027008	0.023499	0.003357	-0.011292	-0.13687	0.031891	-0.074921	-0.081024	0.16083	-0.10788	-0.11612	0.036011	-0.012817	-0.24811	-0.008545	0.039215	-0.17532	0.001526	-0.004272
45.803	0.005035	0.040588	-0.027161	-0.017548	0.023499	0.1738	0.053864	0.004272	-0.10147	0.014648	0.086365	-0.002441	-0.34576	-0.074463	0.090485	-0.006714	0.01236	-0.14832	-0.018616	-0.050812	-0.060272	0.089417	-0.052643	-0.11185	0.035095	-0.016327	-0.13992	-0.011902	-0.057831	-0.14435	0.001984	-0.005951
45.804	0.014343	0.05249	0.014648	-0.018616	0.028534	0.20905	0.020142	0.010223	-0.098572	-0.012207	0.12299	0.001068	-0.16556	0.0354	0.027008	0.00412	0.017853	-0.13947	-0.18555	-0.087128	-0.074768	0.055695	0.015106	-0.053864	0.018311	-0.0177	0.27603	-0.01297	-0.098419	-0.16632	0.003052	-0.01709
45.805	-0.001221	0.072174	0.020599	-0.010223	0.015411	0.15305	0.068817	0.01297	-0.15869	-0.045624	0.062714	-0.011444	0.089874	0.006714	0.10513	0.001678	0.027618	-0.14282	-0.38681	-0.071411	-0.077972	-0.018005	0.042114	-0.13321	0.019531	-0.015717	0.44952	-0.014191	-0.13794	-0.14267	0.002747	-0.007324
45.806	0.003967	0.072021	-0.02533	-0.027771	0.025787	-0.16327	0.080872	0.005798	-0.14496	-0.083313	0.002899	0.003357	0.035553	-0.034485	-0.035706	-0.008392	0.005188	-0.14343	-0.63705	-0.12756	-0.070953	-0.029907	0.075531	-0.16953	-0.011139	-0.00351	0.23544	-0.013428	-0.067291	-0.052795	0.005188	-0.003052
45.807	-0.001984	0.099487	0.10407	0.005035	0.011597	-0.37659	0.094452	-0.005493	-0.095062	-0.085907	-0.1442	-0.013885	0.45593	0.097961	0.033569	0.001984	0.048065	-0.1207	-0.70709	-0.10254	-0.059357	-0.020752	0.064087	-0.12466	-0.002136	0.000763	0.30823	-0.002594	0.11322	-0.03479	-0.00061	-0.002594
45.808	-0.010529	0.080719	0.046692	0.020447	-0.008698	-0.27725	0.15656	-0.006561	-0.10849	0.019073	-0.052643	-0.027618	-0.13901	0.039063	-0.048065	0.001221	0.058594	-0.032043	-0.37827	-0.053101	-0.09552	-0.000916	0.071564	-0.11063	0.016785	0.001526	-0.096436	-0.01358	0.2211	-0.10925	0.00351	-0.005798
45.809	-0.006409	0.080719	-0.041351	0.015411	-0.021973	-0.18982	0.20523	0.000305	0.002747	0.076294	0.058289	0.000763	-0.053864	0.042267	0.21408	-0.004272	0.1004	0.003357	0.34897	0.13641	-0.15274	0.025482	0.097656	-0.1091	0.006409	-0.007019	-0.71228	-0.015564	0.097198	-0.060425	0.000305	-0.004578
45.81	0.003204	0.10925	-0.090027	0.010071	-0.017395	-0.12116	0.15366	0.009308	0.030823	0.14801	0.039673	-0.009003	-0.003815	-0.012207	-0.25177	-0.005493	0.087433	-0.11749	0.35507	0.21423	-0.16449	-0.011292	0.058746	-0.16617	0.011444	-0.002899	-0.65613	-0.021515	-0.06485	-0.057983	-0.000305	-0.004272
45.811	0.000153	0.098267	-0.12039	0.030975	-0.010223	-0.032196	0.018768	0.005493	-0.06424	0.14175	0.01358	-0.024719	0.13992	-0.05188	-0.4187	-0.006714	0.087891	-0.14038	0.063934	0.1416	-0.14328	-0.037231	0.027466	-0.17548	0.01709	-0.001831	-0.13077	-0.010071	-0.20676	-0.048523	0	-0.016632
45.812	0.011139	0.15182	-0.11734	0.013123	-0.011597	0.004883	-0.11719	0.00946	-0.031738	0.023651	0.035706	-0.022888	0.048523	-0.21378	-0.41321	-0.018768	0.09201	-0.23224	0.15472	0.085297	-0.086517	-0.042419	0.010529	-0.16708	0.01358	-0.003815	0.1239	-0.014038	-0.29694	-0.043945	-0.00061	-0.01236
45.813	0.013275	0.21927	-0.029297	0.004578	0.003967	0.052948	-0.026855	0.004883	0.078735	-0.088348	0.067444	-0.004272	-0.12024	-0.21225	-0.13351	-0.015717	0.055847	-0.23987	-0.31021	0.16327	-0.001373	-0.069122	0.004578	-0.11154	0.005188	0.001221	0.40359	-0.012512	-0.14191	-0.14633	-0.000458	-0.006409
45.814	0.004272	0.25177	-0.030975	-0.012817	0.051575	0.021515	0.13214	-0.00824	-0.039063	-0.11368	0.061798	-0.015411	-0.062714	-0.13001	0.037994	-0.003967	0.014038	-0.15503	-0.33905	0.15076	-0.067291	-0.19073	-0.033112	-0.064545	-0.012054	0.000763	0.70419	-0.01358	-0.008392	-0.18158	0.005493	-0.006866
45.815	0.001526	0.31082	0.11063	-0.018768	0.066681	-0.078888	0.23865	-0.016785	-0.099792	-0.11398	0.059814	-0.001373	0.006104	-0.079498	0.15732	0.004883	0.019989	-0.000305	-0.13931	0.07019	-0.12009	-0.35034	-0.020142	-0.082245	-0.028076	-0.011597	1.127	-0.017853	-0.073395	-0.177	-0.000916	-0.016632
45.816	0.000153	0.26916	0.12161	0.012207	0.009308	-0.019836	0.21851	-0.006104	-0.10071	-0.048676	0.019226	-0.008698	-0.060883	0.031586	0.20325	0.00412	0.039215	-0.023499	-0.15732	-0.070038	-0.10132	-0.50186	0.060425	-0.11383	-0.035858	-0.018463	1.1958	-0.01236	-0.34241	-0.12604	0.001526	-0.019684
45.817	-0.016632	0.28427	0.005798	0.000458	-0.03418	0.079193	0.20432	0.004425	-0.096436	0.4628	-0.013733	-0.016174	-0.095215	0.18768	0.17593	0.005798	0.054169	-0.053558	0.10681	-0.039368	-0.15411	-0.57754	0.032501	-0.070343	-0.018158	-0.016785	0.64407	0.000458	-0.36957	-0.090942	0.000458	-0.016937
45.818	-0.019073	0.26871	0.014038	-0.016327	-0.048828	0.11398	0.14328	-0.001068	-0.074768	0.66391	0.008087	-0.001984	-0.14725	0.19775	0.168	-0.012054	0.032501	-0.043488	0.40588	-0.005341	-0.11719	-0.44327	0.011292	-0.042267	0.00946	-0.00946	-0.031128	0.002899	-0.020447	-0.036316	0.000153	-0.010986
45.819	0.002136	0.28824	0.040588	-0.013733	0.000916	0.092926	0.086823	-0.004272	0.06073	0.10666	0.033264	-0.031738	-0.088959	0.12344	0.13657	-0.016785	0.009766	-0.12772	-0.11993	0.008087	-0.10223	-0.16205	-0.001831	-0.031586	0.01709	-0.003204	-0.63126	-0.01297	0.38818	-0.053711	-0.005341	-0.002136
45.82	0.017548	0.31403	0.004272	-0.010986	-0.009613	0.072327	0.00473	0.006866	0.19012	-0.17563	0.055542	-0.00946	0.036163	-0.039215	0.2388	-0.0177	-0.028076	-0.11124	-0.12726	-0.077362	-0.09201	0.10498	0.017548	-0.019073	0.005188	0.015411	-1.7516	-0.014648	0.62256	-0.027771	0.003357	0.003204
45.821	0.028381	0.34714	-0.078125	-0.007629	0	0.003204	-0.1918	-0.011749	0.17777	0.10819	0.028381	-0.00412	0.14664	-0.25116	0.65948	-0.009003	-0.055237	-0.13031	0.23819	-0.22812	0.10269	0.1062	0.001526	-0.034943	0.02121	-0.005798	-0.98068	-0.011292	0.44754	0.000305	0.007019	-0.002747
45.822	0.030518	0.3157	-0.054474	0.025635	0.11322	0.11337	-0.11017	-0.021057	0.033264	0.062866	0.037384	-0.010986	0.16892	-0.35324	0.007935	0.01709	-0.040283	-0.097198	0.34546	-0.26581	0.063629	0.19867	0.009155	-0.005646	0.027313	-0.026703	-0.22461	-0.011749	-0.046692	0.062866	0.006256	-0.01236
45.823	0.032959	0.31876	0.009003	0.034332	0.11169	0.14084	-0.02655	-0.005188	-0.080719	-0.08606	0.03418	-0.002289	0.15198	-0.14679	-0.29266	0.014648	-0.081787	-0.10605	0.87265	-0.13046	-0.009155	0.45258	-0.005493	0.082245	0.044098	-0.033112	-0.47012	-0.010071	0.036163	0.067902	0.001984	-0.02243
45.824	0.010376	0.34988	-0.065002	0.008087	0.074005	0.17761	0.10132	-0.00824	-0.18707	-0.34943	-0.039215	-0.001221	0.010223	0.2272	-0.087585	0.00473	-0.054321	-0.16861	-0.018616	0.08667	0.001526	0.45136	-0.007477	0.088043	0.048981	-0.039063	-0.49545	-0.014801	0.030365	0.052948	-0.005951	-0.017242
